<svg xmlns="http://www.w3.org/2000/svg" xmlns:xlink="http://www.w3.org/1999/xlink" width="512" zoomAndPan="magnify" viewBox="0 0 384 383.999986" height="512" preserveAspectRatio="xMidYMid meet" version="1.0"><defs><clipPath id="45e9a65639"><path d="M 5 3.757812 L 375 3.757812 L 375 384 L 5 384 Z M 5 3.757812 " clip-rule="nonzero"/></clipPath></defs><g clip-path="url(#45e9a65639)"><path fill="#000000" d="M 370.875 204.757812 L 273.125 204.757812 C 272.625 204.757812 272.375 204.757812 271.875 204.757812 C 270.875 204.757812 269.875 205.007812 269.125 206.007812 C 268.375 206.757812 267.875 207.757812 267.875 208.757812 L 267.875 380.257812 C 267.875 382.507812 266.125 384.257812 263.875 384.257812 L 189.125 384.257812 C 186.875 384.257812 185.125 382.507812 185.125 380.257812 L 185.125 183.507812 C 185.125 182.007812 184.375 180.757812 182.875 180.007812 C 178.875 178.007812 174.875 176.007812 170.875 174.007812 C 163.125 170.007812 155.125 166.007812 147.375 162.257812 C 146.125 161.757812 144.875 161.757812 143.625 162.507812 C 142.375 163.257812 141.875 164.507812 141.875 165.757812 L 141.875 380.257812 C 141.875 382.507812 140.125 384.257812 137.875 384.257812 L 126.125 384.257812 C 123.875 384.257812 122.125 382.507812 122.125 380.257812 L 122.125 155.507812 C 122.125 153.757812 120.875 152.257812 119.125 151.757812 C 108.875 149.007812 97.875 147.257812 85.875 147.007812 L 9.125 147.007812 C 6.875 147.007812 5.125 145.257812 5.125 143.007812 L 5.125 10.257812 C 5.125 8.007812 6.875 6.257812 9.125 6.257812 L 85.875 6.257812 C 123.875 6.507812 151.625 20.757812 179.875 35.257812 C 181.625 36.257812 183.625 37.257812 185.375 38.257812 C 186.625 38.757812 187.875 38.757812 188.875 38.257812 C 192.625 36.257812 196.125 34.507812 199.625 32.757812 C 227.875 18.257812 255.375 4.007812 293.625 3.757812 L 370.375 3.757812 C 372.625 3.757812 374.375 5.507812 374.375 7.757812 L 374.375 140.507812 C 374.375 142.757812 372.625 144.507812 370.375 144.507812 L 272.625 144.507812 C 229.875 144.007812 199.875 128.757812 170.625 113.507812 C 144.625 100.007812 118.875 86.757812 85.625 86.507812 L 28.375 86.507812 C 26.125 86.507812 24.375 88.257812 24.375 90.507812 L 24.375 123.257812 C 24.375 125.507812 26.125 127.257812 28.375 127.257812 L 85.625 127.257812 C 123.625 127.507812 151.375 141.757812 179.625 156.257812 C 187.125 160.007812 194.375 164.007812 202.125 167.507812 C 203.625 168.257812 204.375 169.507812 204.375 171.007812 L 204.375 360.257812 C 204.375 362.507812 206.125 364.257812 208.375 364.257812 L 243.875 364.257812 C 246.125 364.257812 247.875 362.507812 247.875 360.257812 L 247.875 182.757812 L 249.125 183.007812 L 265.375 183.007812 C 267.125 183.007812 268.875 183.257812 270.625 183.257812 L 368.375 183.257812 C 370.625 183.257812 372.375 185.007812 372.375 187.257812 L 372.375 199.007812 C 372.375 201.257812 370.625 203.007812 368.375 203.007812 Z M 217.875 53.257812 C 234.375 59.507812 252.125 64.007812 273.125 64.257812 L 351.125 64.257812 C 353.375 64.257812 355.125 62.507812 355.125 60.257812 L 355.125 27.507812 C 355.125 25.257812 353.375 23.507812 351.125 23.507812 L 293.875 23.507812 C 264.125 23.757812 240.625 34.257812 217.375 46.007812 C 215.875 46.757812 215.125 48.007812 215.125 49.757812 C 215.125 51.257812 216.125 52.757812 217.625 53.257812 Z M 351.125 84.007812 L 273.125 84.007812 C 230.375 83.507812 200.375 68.257812 171.125 53.007812 C 145.125 39.507812 119.375 26.257812 86.125 26.257812 L 28.875 26.257812 C 26.625 26.257812 24.875 28.007812 24.875 30.257812 L 24.875 63.007812 C 24.875 65.257812 26.625 67.007812 28.875 67.007812 L 86.125 67.007812 C 124.125 67.257812 151.875 81.507812 180.125 96.007812 C 207.375 110.007812 235.125 124.507812 273.125 124.757812 L 351.125 124.757812 C 353.375 124.757812 355.125 123.007812 355.125 120.757812 L 355.125 88.007812 C 355.125 85.757812 353.375 84.007812 351.125 84.007812 Z M 351.125 84.007812 " fill-opacity="1" fill-rule="nonzero"/></g></svg>